PathFileType	4	(X/Y/Z)	RBDS028\RBDS028runT35.trc
DataRate	CameraRate	NumFrames	NumMarkers	Units	OrigDataRate	OrigDataStartFrame	OrigNumFrames
150.000000	150.000000	6	33	mm	150.000000	1125	4500
Frame#	Time	L.ASIS			L.Heel.Bottom			L.Heel.Lateral			L.Heel.Top			L.Iliac.Crest			L.MT1			L.MT5			L.PSIS			L.Shank.Bottom.Lateral			L.Shank.Bottom.Medial			L.Shank.Top.Lateral			L.Shank.Top.Medial			L.Thigh.Bottom.Lateral			L.Thigh.Bottom.Medial			L.Thigh.Top.Lateral			L.Thigh.Top.Medial			R.ASIS			R.ASY			R.Heel.Bottom			R.Heel.Lateral			R.Heel.Top			R.Iliac.Crest			R.MT1			R.MT5			R.PSIS			R.Shank.Bottom.Lateral			R.Shank.Bottom.Medial			R.Shank.Top.Lateral			R.Shank.Top.Medial			R.Thigh.Bottom.Lateral			R.Thigh.Bottom.Medial			R.Thigh.Top.Lateral			R.Thigh.Top.Medial			
		X1	Y1	Z1	X2	Y2	Z2	X3	Y3	Z3	X4	Y4	Z4	X5	Y5	Z5	X6	Y6	Z6	X7	Y7	Z7	X8	Y8	Z8	X9	Y9	Z9	X10	Y10	Z10	X11	Y11	Z11	X12	Y12	Z12	X13	Y13	Z13	X14	Y14	Z14	X15	Y15	Z15	X16	Y16	Z16	X17	Y17	Z17	X18	Y18	Z18	X19	Y19	Z19	X20	Y20	Z20	X21	Y21	Z21	X22	Y22	Z22	X23	Y23	Z23	X24	Y24	Z24	X25	Y25	Z25	X26	Y26	Z26	X27	Y27	Z27	X28	Y28	Z28	X29	Y29	Z29	X30	Y30	Z30	X31	Y31	Z31	X32	Y32	Z32	X33	Y33	Z33	

1126	7.500000000000001	1988.176521748379	881.0514019141743	906.5737610385194	2087.035290979455	37.56967174172073	973.8329263048439	2115.928009382641	48.54015201749448	928.1359749242496	2093.156039619268	81.50972293178349	965.6314190151818	1917.695761743787	931.6327746330392	872.7835114049805	2301.804690891427	73.479451375004	1016.994698188478	2270.200558394305	46.33325973481535	910.0005239343183	1836.61196445438	895.1242522071228	975.1813665656812	2135.200987725764	176.8359884501859	905.5359567176928	2098.672843894258	171.1789304952412	940.5093754395022	2110.664195355957	251.3655303780196	886.1316666503074	2074.96363609977	251.5579599492878	925.5203787235911	2077.763065890852	569.7732225053581	853.489953835018	2019.293547126344	538.1461151591787	883.2352599751156	2021.477165822462	663.5220067015105	842.228853062245	1965.10715477167	632.5266459859023	869.2420681303649	1995.681870906655	868.5518303634269	1137.099944147978	1467.566199528094	234.176241278499	1067.874695565271	1402.75599725528	405.3501483780213	1022.5675105992	1415.752029906975	382.954405027394	1071.359005712856	1446.838781322151	399.0821749924572	1031.708984314333	1956.539115655188	939.4993495133584	1152.841306169504	1434.460479164315	188.3084539900206	1017.551721461602	1403.571394129903	235.7927547148211	1116.860093101414	1844.979030674338	901.7921566343161	1068.689767393545	1531.590699035852	373.1811248868952	1105.22982477908	1525.007325528016	407.0890976073281	1061.873017281459	1599.575575023886	413.7438595454861	1124.239517859865	1592.737309043502	445.4102810782092	1081.324683298186	1856.377254734282	536.9288503268017	1162.558203495551	1800.751421734617	554.0814224026934	1120.911745792039	1876.442103265876	644.4212775683288	1177.485890395106	1822.343232237741	660.1247727811377	1138.743830914974	
1127	7.506666666666667	1986.983677261	878.0087095485673	905.3240879745599	2071.829179381383	36.656876271915	978.3608332405148	2100.132279818481	47.08310905285528	932.0155096203986	2079.304581260587	80.37740551434972	970.3499283543953	1916.560457796405	928.3253897881455	872.2721230104576	2288.333168389082	65.8755812029612	1017.493071459436	2253.831627100904	41.17651026434842	910.5070192085286	1836.150005256184	890.6953142460818	975.7485417202074	2124.258783990039	172.2246788524332	908.2997418035732	2087.967344582502	168.2470232844356	943.6833043490385	2101.829435690593	247.151944797505	888.2722006458804	2066.753147688079	248.9619613032078	928.1418421216723	2075.131895425949	565.7715919468291	852.8756640726851	2017.188025711307	534.4288133409284	883.8104218369002	2018.714549660978	659.4651887197407	841.7808954902631	1962.790825798023	628.673821899415	869.8066799438917	1996.674303022136	866.2348638823155	1136.529586429847	1469.977563922037	246.7277896298221	1067.823562542241	1414.742056995297	420.5555799206062	1021.964241345124	1426.759387930226	397.7955939090696	1070.845488810754	1458.415269518075	411.8534340648486	1030.995307301639	1955.140962454053	936.5252971383845	1152.807374323748	1434.125101205756	202.0789159192984	1018.048151531167	1406.641563930878	252.0589739352127	1117.308235193616	1845.232983727061	897.0948831779588	1068.931728454989	1540.761361703279	381.2927044079381	1105.337894283369	1536.25103256413	415.6892392235268	1062.072240427363	1610.755641716014	418.0651753410799	1124.993791525027	1605.871157212777	450.2404416967113	1082.20771064215	1866.375547778306	529.6820822252746	1164.409539297606	1810.70099572816	544.5857191667758	1122.073726729133	1882.805229234283	638.0112587502153	1178.279213909043	1828.391849511557	651.5946647409688	1139.143896722638	
1128	7.513333333333334	1985.679452347885	874.4723672276911	903.8594704522562	2053.882609167099	35.57515234171667	982.4579596309145	2081.71338196056	45.94531390431644	935.7132555967009	2062.689169502551	79.14292993319114	975.1195384973729	1915.13968442015	924.4097777861409	871.8205543456588	2272.144170953327	58.09396662630925	1018.263875785654	2234.940081884609	36.71546952727018	911.0833716548005	1835.629202545293	885.7354590146257	976.4692732033436	2111.592935023092	167.407348891022	911.3288430658766	2075.280840988867	165.4197466450904	946.7813422482645	2091.897022917136	242.7678374585408	890.4352130309327	2057.241130737696	246.4850526061791	930.4992467696878	2072.424607421402	561.3592072718754	852.4126547432674	2015.044303653671	530.3206372988565	884.5317175302226	2015.898651481364	655.0252387971067	841.4680877674602	1960.450189376094	624.4517463489464	870.4796271505863	1997.639491077678	863.3221443995835	1135.892150810839	1474.449157333179	258.4859825052233	1067.793630447043	1428.537778306167	434.4863319311666	1021.469297677869	1439.553842745647	411.3629261428632	1070.458482968921	1471.724687985405	423.4554150077061	1030.441940581986	1954.168392032222	932.7088923223366	1152.911844135464	1436.107192458597	215.1211162370247	1018.544653820433	1411.846493281864	267.2099965034615	1117.671708544872	1845.466085875517	891.7148030140772	1069.339612844989	1551.428305106588	388.6254212045605	1105.602915786605	1548.967544366398	423.3177876772407	1062.398072027713	1623.101293161673	421.6858377754702	1125.904729940492	1620.159671745461	454.1762583592435	1083.203220116282	1876.286672046213	522.5062835781798	1166.399266680489	1820.817747638895	535.0779834883357	1123.160616307681	1889.064835247038	631.5664266946289	1179.09005320854	1834.579810719296	642.9485098177603	1139.316913585984	
1129	7.52	1984.252471629122	870.4951944579313	902.2181458876548	2033.772482807242	34.24914273177502	986.0571392818474	2061.261393357083	45.05640541928594	939.1734354584031	2043.776729541349	77.73532218181676	979.8056559010776	1913.423711303023	919.8327630210042	871.4614749752718	2253.679611807112	50.72472826140289	1019.346216079512	2214.125107521537	33.19466324563395	911.820816380116	1835.016439936947	880.340779044948	977.3378936530356	2097.451465249297	162.5286472587109	914.540886455437	2060.880243216806	162.7643082603965	949.7074124385173	2081.004247105489	238.2901661901078	892.5473387387771	2046.565329838468	244.1319319028354	932.505160942676	2069.499955779499	556.5100112525399	852.046151310258	2012.688454838012	525.8444632451824	885.349893904453	2012.966873949661	650.2261916968546	841.2320013475625	1957.995453339919	619.9355361826983	871.2203572243691	1998.528977973918	859.8370250540937	1135.182074548772	1480.932161366922	269.2126974299769	1067.810833887382	1443.811227686012	446.9181729517056	1021.08878210053	1453.834866492507	423.4600085926152	1070.215397447512	1486.46824825342	433.7293023734491	1030.034452087662	1953.683591546605	928.0998095480419	1153.129722290417	1440.414624824194	227.1342655296191	1019.091102189612	1419.097900029176	280.9513817557847	1118.003174996516	1845.628869138137	885.7536420845294	1069.913495020875	1563.442944592565	395.0519052778207	1106.015496103521	1562.975168362667	429.869452875851	1062.852173537866	1636.473081429237	424.5413376520735	1126.956795165858	1635.430551753667	457.1692078614878	1084.300022333023	1886.079740399501	515.5067975584627	1168.494718080758	1831.028522742336	525.6946352730477	1124.212311721187	1895.204629922632	625.1701127567969	1179.927814350727	1840.857938784534	634.2936946507764	1139.344159225412	
1130	7.526666666666667	1982.692639000291	866.15679984824	900.4579242604723	2012.062046382368	32.69306229584507	989.1301011009397	2039.341379327701	44.37294891409022	942.3494245677873	2023.058877044409	76.16171160148785	984.2753122144327	1911.442177850508	914.5865307762145	871.2142715203508	2233.401573403936	44.24313486272913	1020.713034718829	2191.944743809135	30.72933518980329	912.7617316223955	1834.27083811715	874.6461267554836	978.3320079751932	2082.070146349453	157.7609513740425	917.8235254124052	2045.051545237972	160.3720539458441	952.3770863213432	2069.26230883403	233.832001072738	894.5384344347301	2034.867546271949	241.9388719162484	934.1103774551199	2066.230904396769	551.2607943472925	851.7252969950717	2009.958861716131	521.0695313791949	886.2049318956238	2009.854019643892	645.1412085733488	841.0192913511625	1955.334709595313	615.2354441140502	871.9832035529317	1999.281187804198	855.8309019416055	1134.4008273494	1489.343476213894	278.6895771476528	1067.889018950815	1460.195039497523	457.6780080492526	1020.851139208292	1469.278942490986	433.9312150570594	1070.14998808405	1502.31682667788	442.5622790589427	1029.77546191198	1953.661515659357	922.7977503595537	1153.427166114446	1446.999658931394	237.8441256910097	1019.712338293041	1428.282502218522	293.0167977675721	1118.354748831091	1845.656347726992	879.3595652031092	1070.630662663885	1576.643498650708	400.464191351676	1106.563473042577	1578.076014696253	435.2768981725648	1063.441277338207	1650.734356728974	426.583057466715	1128.133113563961	1651.511599336484	459.2042175415539	1085.492275155817	1895.784240227002	508.7641090199425	1170.665448041419	1841.296474524262	516.5356683084415	1125.291745566951	1901.242938568766	618.8869155859393	1180.805082441471	1847.192288779333	625.7075443105662	1139.331146077729	
1131	7.533333333333334	1980.994522980436	861.5635521614516	898.6518398838608	1989.268082181391	30.99653663544348	991.6795342180937	2016.461225031888	43.87437895647382	945.2003381058986	2001.021891217118	74.49600004566456	988.401755328168	1909.254657790386	908.7211710752072	871.082478519795	2211.766480182856	38.96348369308969	1022.283604565297	2168.887111726191	29.30336678944474	913.8977769681989	1833.350453201521	868.819993042297	979.4160446031934	2065.667053585439	153.2824627101755	921.0413142807849	2028.086374578305	158.3415861863502	954.7186304121001	2056.758117688477	229.5258982268421	896.3416529298693	2022.289503198494	239.962144080722	935.2991140045471	2062.519148940333	545.7091841271915	851.4058431037708	2006.720233324992	516.1061442990646	887.0234321017094	2006.504034595486	639.8889876705579	840.7871376797275	1952.384556420549	610.4893866814839	872.7164680670924	1999.827656029644	851.3842233526956	1133.559202662397	1499.573174789256	286.7261662927809	1068.028944162189	1477.31624779337	466.6494893019191	1020.807621606829	1485.564122035411	442.6631956145928	1070.311607972511	1518.937688626685	449.887980307508	1029.688574390771	1953.993640417523	916.9481985585315	1153.767108629492	1455.764283809399	247.0152320631146	1020.404303870978	1439.267214482253	303.1740988007364	1118.77074684129	1845.477391669423	872.7213548496063	1071.450096420594	1590.864476752649	404.7789650065562	1107.23528753608	1594.065251202675	439.5110543270158	1064.177875792798	1665.756172023947	427.7844497031176	1129.416947776516	1668.235403229162	460.3020210789886	1086.779583494416	1905.480390284948	502.348814102162	1172.882167136804	1851.621931316374	507.6787428858013	1126.472617538264	1907.228621248025	612.7744620127892	1181.733143722778	1853.5686493537	617.2494164277481	1139.392243507918	
